<?xml version="1.0" encoding="utf-8"?>
<!-- Generator: Adobe Illustrator 16.0.0, SVG Export Plug-In . SVG Version: 6.00 Build 0)  -->
<!DOCTYPE svg PUBLIC "-//W3C//DTD SVG 1.1//EN" "http://www.w3.org/Graphics/SVG/1.1/DTD/svg11.dtd">
<svg version="1.1" id="Layer_1" xmlns="http://www.w3.org/2000/svg" xmlns:xlink="http://www.w3.org/1999/xlink" x="0px" y="0px"
	 width="20.131px" height="27.912px" viewBox="0 0 20.131 27.912" enable-background="new 0 0 20.131 27.912" xml:space="preserve">
<g>
	<defs>
		<rect id="SVGID_1_" y="0" width="20.131" height="27.912"/>
	</defs>
	<clipPath id="SVGID_2_">
		<use xlink:href="#SVGID_1_"  overflow="visible"/>
	</clipPath>
	
		<path clip-path="url(#SVGID_2_)" fill="none" class="ico_gnb_stroke" stroke="#e9e9f3" stroke-width="2" stroke-linecap="round" stroke-linejoin="round" stroke-miterlimit="10" d="
		M16.15,21.711l-6.085,5.201L3.98,21.711C2.089,20.095,1,17.732,1,15.246V3.247c5.672-2.996,12.459-2.996,18.131,0v11.999
		C19.131,17.732,18.042,20.095,16.15,21.711z"/>
	
		<path clip-path="url(#SVGID_2_)" fill="none" class="ico_gnb_stroke" stroke="#e9e9f3" stroke-width="2" stroke-linecap="round" stroke-linejoin="round" stroke-miterlimit="10" d="
		M10.065,5L10.065,5C8.342,5,6.625,5.292,5,5.857v6.35h5.066V5z"/>
	
		<path clip-path="url(#SVGID_2_)" fill="none" class="ico_gnb_stroke" stroke="#e9e9f3" stroke-width="2" stroke-linecap="round" stroke-linejoin="round" stroke-miterlimit="10" d="
		M10.065,12.206v9.443l3.486-2.978c1.004-0.858,1.579-2.106,1.579-3.426v-3.04H10.065z"/>
	
		<path clip-path="url(#SVGID_2_)" fill="none" class="ico_gnb_stroke" stroke="#e9e9f3" stroke-width="2" stroke-linecap="round" stroke-linejoin="round" stroke-miterlimit="10" d="
		M15.13,12.206V5.857c-1.625-0.565-3.342-0.858-5.064-0.858v7.207H15.13z"/>
	
		<path clip-path="url(#SVGID_2_)" fill="none" class="ico_gnb_stroke" stroke="#e9e9f3" stroke-width="2" stroke-linecap="round" stroke-linejoin="round" stroke-miterlimit="10" d="
		M5,12.206v3.04c0,1.318,0.575,2.567,1.579,3.425l3.486,2.979l0.001-0.001v-9.443H5z"/>
</g>
</svg>
