<?xml version="1.0" encoding="utf-8"?>
<!-- Generator: Adobe Illustrator 16.0.0, SVG Export Plug-In . SVG Version: 6.00 Build 0)  -->
<!DOCTYPE svg PUBLIC "-//W3C//DTD SVG 1.1//EN" "http://www.w3.org/Graphics/SVG/1.1/DTD/svg11.dtd">
<svg version="1.1" id="Layer_1" xmlns="http://www.w3.org/2000/svg" xmlns:xlink="http://www.w3.org/1999/xlink" x="0px" y="0px"
	 width="81.912px" height="54.547px" viewBox="0 0 81.912 54.547" enable-background="new 0 0 81.912 54.547" xml:space="preserve">
<g>
	<defs>
		<rect id="SVGID_1_" y="0" width="81.912" height="54.547"/>
	</defs>
	<clipPath id="SVGID_2_">
		<use xlink:href="#SVGID_1_"  overflow="visible"/>
	</clipPath>
	<path clip-path="url(#SVGID_2_)" fill="#e9e9f3" d="M57.547,40.637H6.783c-1.381,0-2.5-1.119-2.5-2.5V4.43
		c0-1.381,1.119-2.5,2.5-2.5h36.244c1.382,0,2.5,1.119,2.5,2.5s-1.118,2.5-2.5,2.5H9.283v28.708h45.764v-3.851
		c0-1.38,1.119-2.5,2.5-2.5s2.5,1.12,2.5,2.5v6.351C60.047,39.518,58.928,40.637,57.547,40.637"/>
	<path clip-path="url(#SVGID_2_)" fill="#e9e9f3" d="M61.85,54.546c-0.004,0.002-0.012,0-0.02,0H2.5
		c-0.789,0-1.532-0.372-2.003-1.006c-0.472-0.633-0.618-1.45-0.393-2.208l4.283-14.386c0.317-1.059,1.291-1.786,2.397-1.786h50.763
		c1.105,0,2.08,0.728,2.396,1.786l4.194,14.091c0.137,0.31,0.212,0.65,0.212,1.009C64.35,53.428,63.23,54.546,61.85,54.546
		 M5.853,49.546h52.625l-2.795-9.386H8.647L5.853,49.546z"/>
	<path clip-path="url(#SVGID_2_)" fill="#e9e9f3" d="M42.98,52.881c-1.381,0-2.5-1.119-2.5-2.5c0-0.976-0.764-2.646-1.291-3.089
		H25.141c-0.526,0.443-1.289,2.113-1.289,3.089c0,1.381-1.119,2.5-2.5,2.5c-1.381,0-2.5-1.119-2.5-2.5
		c0-2.745,2.141-8.089,6.065-8.089h14.498c3.924,0,6.066,5.344,6.066,8.089C45.48,51.762,44.361,52.881,42.98,52.881"/>
	<path clip-path="url(#SVGID_2_)" fill="#e9e9f3" d="M57.494,27.599H39.438c-5.747,0-9.918-3.827-9.918-9.099
		c0-5.065,3.818-9.256,8.73-9.845c0.912-4.809,5.146-8.456,10.215-8.456c5.07,0,9.305,3.647,10.218,8.456
		c4.911,0.589,8.729,4.78,8.729,9.845C67.412,23.772,63.241,27.599,57.494,27.599 M39.438,13.584c-2.712,0-4.918,2.205-4.918,4.916
		c0,3.025,2.649,4.099,4.918,4.099h18.057c2.269,0,4.918-1.074,4.918-4.099c0-2.711-2.206-4.916-4.918-4.916H56.34
		c-0.694,0-1.357-0.289-1.83-0.797c-0.474-0.509-0.714-1.19-0.663-1.884c0.011-0.148,0.019-0.224,0.019-0.303
		c0-2.978-2.423-5.401-5.4-5.401c-2.977,0-5.398,2.423-5.398,5.401c0,0.054,0.005,0.107,0.009,0.16l0.012,0.204
		c0.033,0.683-0.216,1.349-0.688,1.845c-0.472,0.495-1.126,0.775-1.81,0.775H39.438z"/>
	<path clip-path="url(#SVGID_2_)" fill="#e9e9f3" d="M72.415,19.5c-0.083,0-0.167-0.004-0.252-0.013
		c-1.374-0.136-2.376-1.362-2.238-2.736c0.768-7.679-6.229-9.242-6.527-9.305c-1.352-0.284-2.216-1.61-1.932-2.961
		c0.285-1.351,1.614-2.219,2.961-1.931c4.046,0.851,11.44,5.018,10.473,14.695C74.77,18.538,73.684,19.5,72.415,19.5"/>
	<path clip-path="url(#SVGID_2_)" fill="#e9e9f3" d="M79.41,13.5c-1.32,0-2.424-1.034-2.494-2.368
		c-0.207-3.919-0.779-4.328-3.957-6.598c-1.123-0.803-1.384-2.363-0.581-3.487c0.801-1.123,2.363-1.384,3.487-0.581
		c3.752,2.68,5.725,4.359,6.043,10.402c0.073,1.379-0.985,2.556-2.364,2.628C79.499,13.499,79.454,13.5,79.41,13.5"/>
</g>
</svg>
