<?xml version="1.0" encoding="utf-8"?>
<!-- Generator: Adobe Illustrator 16.0.0, SVG Export Plug-In . SVG Version: 6.00 Build 0)  -->
<!DOCTYPE svg PUBLIC "-//W3C//DTD SVG 1.1//EN" "http://www.w3.org/Graphics/SVG/1.1/DTD/svg11.dtd">
<svg version="1.1" id="Layer_1" xmlns="http://www.w3.org/2000/svg" xmlns:xlink="http://www.w3.org/1999/xlink" x="0px" y="0px"
	 width="72.461px" height="58.204px" viewBox="0 0 72.461 58.204" enable-background="new 0 0 72.461 58.204" xml:space="preserve">
<g>
	<defs>
		<rect id="SVGID_1_" width="72.461" height="58.204"/>
	</defs>
	<clipPath id="SVGID_2_">
		<use xlink:href="#SVGID_1_"  overflow="visible"/>
	</clipPath>
	<path clip-path="url(#SVGID_2_)" fill="#e9e9f3" d="M57.701,47.922H4.289C1.924,47.922,0,45.997,0,43.632V6.518
		C0,4.153,1.924,2.23,4.289,2.23h37.412c1.381,0,2.5,1.119,2.5,2.5c0,1.38-1.119,2.5-2.5,2.5H5v35.692h51.99v-8.753
		c0-1.381,1.119-2.5,2.5-2.5s2.5,1.119,2.5,2.5v9.463C61.99,45.997,60.066,47.922,57.701,47.922"/>
	<path clip-path="url(#SVGID_2_)" fill="#e9e9f3" d="M43.797,58.204H18.192c-1.381,0-2.5-1.119-2.5-2.5s1.119-2.5,2.5-2.5h25.605
		c1.381,0,2.5,1.119,2.5,2.5S45.178,58.204,43.797,58.204"/>
	<path clip-path="url(#SVGID_2_)" fill="#e9e9f3" d="M25.182,58.204c-1.381,0-2.5-1.119-2.5-2.5v-8.049c0-1.381,1.119-2.5,2.5-2.5
		s2.5,1.119,2.5,2.5v8.049C27.682,57.085,26.563,58.204,25.182,58.204"/>
	<path clip-path="url(#SVGID_2_)" fill="#e9e9f3" d="M37.254,58.204c-1.381,0-2.5-1.119-2.5-2.5v-8.049c0-1.381,1.119-2.5,2.5-2.5
		s2.5,1.119,2.5,2.5v8.049C39.754,57.085,38.635,58.204,37.254,58.204"/>
	<path clip-path="url(#SVGID_2_)" fill="#e9e9f3" d="M72.461,17.555v-5.195h-3.379c-0.303-1.352-0.842-2.616-1.561-3.75l2.5-2.499
		L66.35,2.439l-2.502,2.499c-1.135-0.721-2.393-1.256-3.748-1.559V0h-5.197v3.38c-1.35,0.303-2.611,0.838-3.746,1.559l-2.504-2.505
		l-3.676,3.669l2.506,2.507c-0.717,1.134-1.254,2.398-1.557,3.75h-3.381v5.195h3.383c0.301,1.35,0.834,2.613,1.555,3.747
		l-2.391,2.391l3.676,3.673l2.389-2.391c1.135,0.721,2.396,1.255,3.746,1.556v3.383H60.1v-3.383
		c1.355-0.301,2.613-0.835,3.748-1.556l2.457,2.455l3.67-3.675l-2.453-2.453c0.719-1.134,1.253-2.397,1.561-3.747H72.461z
		 M57.504,18.555c-1.988,0-3.6-1.609-3.6-3.598c0-1.988,1.611-3.6,3.6-3.6c1.986,0,3.6,1.612,3.6,3.6
		C61.104,16.946,59.49,18.555,57.504,18.555"/>
</g>
</svg>
