<?xml version="1.0" encoding="utf-8"?>
<!-- Generator: Adobe Illustrator 16.0.0, SVG Export Plug-In . SVG Version: 6.00 Build 0)  -->
<!DOCTYPE svg PUBLIC "-//W3C//DTD SVG 1.1//EN" "http://www.w3.org/Graphics/SVG/1.1/DTD/svg11.dtd">
<svg version="1.1" id="Layer_1" xmlns="http://www.w3.org/2000/svg" xmlns:xlink="http://www.w3.org/1999/xlink" x="0px" y="0px"
	 width="65.178px" height="51.74px" viewBox="0 0 65.178 51.74" enable-background="new 0 0 65.178 51.74" xml:space="preserve">
<g>
	<defs>
		<rect id="SVGID_1_" width="65.178" height="51.74"/>
	</defs>
	<clipPath id="SVGID_2_">
		<use xlink:href="#SVGID_1_"  overflow="visible"/>
	</clipPath>
	<path clip-path="url(#SVGID_2_)" fill="#e9e9f3" d="M39.375,42.311H4.139C1.856,42.311,0,40.454,0,38.17V4.14
		C0,1.857,1.856,0,4.139,0h48.979c2.281,0,4.139,1.858,4.139,4.14v6.167c0,1.381-1.119,2.5-2.5,2.5s-2.5-1.119-2.5-2.5V5H5v32.311
		h34.375c1.381,0,2.5,1.119,2.5,2.5S40.756,42.311,39.375,42.311"/>
	<path clip-path="url(#SVGID_2_)" fill="#e9e9f3" d="M40.367,51.74h-23.48c-1.381,0-2.5-1.119-2.5-2.5s1.119-2.5,2.5-2.5h23.48
		c1.381,0,2.5,1.119,2.5,2.5S41.748,51.74,40.367,51.74"/>
	<path clip-path="url(#SVGID_2_)" fill="#e9e9f3" d="M23.297,51.74c-1.381,0-2.5-1.119-2.5-2.5v-7.38c0-1.381,1.119-2.5,2.5-2.5
		s2.5,1.119,2.5,2.5v7.38C25.797,50.621,24.678,51.74,23.297,51.74"/>
	<path clip-path="url(#SVGID_2_)" fill="#e9e9f3" d="M34.367,51.74c-1.381,0-2.5-1.119-2.5-2.5v-7.38c0-1.381,1.119-2.5,2.5-2.5
		s2.5,1.119,2.5,2.5v7.38C36.867,50.621,35.748,51.74,34.367,51.74"/>
	<path clip-path="url(#SVGID_2_)" fill="#e9e9f3" d="M52.826,44.249h-0.303c-0.221,0-0.44-0.036-0.648-0.108
		c-11.916-4.086-11.713-13.728-11.698-14.137l-0.001-10.885c0-1.105,0.896-2,2-2c7.218,0,9.342-2.063,9.362-2.083
		c0.398-0.48,0.964-0.734,1.593-0.687c0.623,0.027,1.17,0.372,1.526,0.883c0.84,1.198,3.494,1.942,6.928,1.942
		c0.846,0,1.412-0.047,1.412-0.047c0.568-0.049,1.116,0.14,1.53,0.518c0.412,0.379,0.648,0.913,0.648,1.474v10.956
		c0.014,0.337,0.22,9.979-11.701,14.065C53.266,44.213,53.047,44.249,52.826,44.249 M44.176,21.069v9.006
		c-0.006,0.338-0.027,6.934,8.499,10.104c8.529-3.171,8.507-9.766,8.502-10.05l-0.001-8.958c-2.755-0.041-6.089-0.498-8.348-2.174
		C51.299,19.863,48.625,20.84,44.176,21.069"/>
	<path clip-path="url(#SVGID_2_)" fill="#e9e9f3" d="M51.455,33.556c-0.512,0-1.023-0.195-1.414-0.585l-3.334-3.332
		c-0.781-0.781-0.781-2.048-0.001-2.829c0.781-0.781,2.048-0.78,2.829-0.001l1.92,1.919l4.836-4.836
		c0.781-0.781,2.047-0.781,2.828,0c0.781,0.781,0.781,2.047,0,2.828l-6.25,6.25C52.478,33.36,51.967,33.556,51.455,33.556"/>
</g>
</svg>
