<?xml version="1.0" encoding="utf-8"?>
<!-- Generator: Adobe Illustrator 16.0.0, SVG Export Plug-In . SVG Version: 6.00 Build 0)  -->
<!DOCTYPE svg PUBLIC "-//W3C//DTD SVG 1.1//EN" "http://www.w3.org/Graphics/SVG/1.1/DTD/svg11.dtd">
<svg version="1.1" id="Layer_1" xmlns="http://www.w3.org/2000/svg" xmlns:xlink="http://www.w3.org/1999/xlink" x="0px" y="0px"
	 width="27.037px" height="27.038px" viewBox="0 0 27.037 27.038" enable-background="new 0 0 27.037 27.038" xml:space="preserve">
<g>
	<defs>
		<rect id="SVGID_1_" y="0" width="27.038" height="27.038"/>
	</defs>
	<clipPath id="SVGID_2_">
		<use xlink:href="#SVGID_1_"  overflow="visible"/>
	</clipPath>
	
		<path clip-path="url(#SVGID_2_)" fill="none" class="ico_gnb_stroke" stroke="#e9e9f3" stroke-width="2" stroke-linecap="round" stroke-linejoin="round" stroke-miterlimit="10" d="
		M26.038,15.512v-3.988h-3.137c-0.247-1.169-0.71-2.258-1.342-3.227l2.221-2.221l-2.819-2.82L18.74,5.478
		c-0.97-0.632-2.058-1.094-3.228-1.342V1h-3.988v3.136c-1.17,0.248-2.258,0.71-3.228,1.342l-2.22-2.221l-2.82,2.82l2.22,2.221
		c-0.63,0.969-1.094,2.058-1.341,3.227H1v3.988h3.136c0.247,1.17,0.711,2.258,1.341,3.229l-2.22,2.221l2.82,2.82l2.22-2.222
		c0.97,0.631,2.058,1.095,3.228,1.343v3.135h3.988v-3.135c1.17-0.248,2.258-0.712,3.228-1.343l2.221,2.222l2.819-2.82l-2.221-2.221
		c0.632-0.971,1.095-2.059,1.342-3.229H26.038z"/>
	
		<circle clip-path="url(#SVGID_2_)" fill="none" class="ico_gnb_stroke" stroke="#e9e9f3" stroke-width="2" stroke-linecap="round" stroke-linejoin="round" stroke-miterlimit="10" cx="13.519" cy="13.519" r="2.36"/>
</g>
</svg>
