<?xml version="1.0" encoding="utf-8"?>
<!-- Generator: Adobe Illustrator 16.0.0, SVG Export Plug-In . SVG Version: 6.00 Build 0)  -->
<!DOCTYPE svg PUBLIC "-//W3C//DTD SVG 1.1//EN" "http://www.w3.org/Graphics/SVG/1.1/DTD/svg11.dtd">
<svg version="1.1" id="Layer_1" xmlns="http://www.w3.org/2000/svg" xmlns:xlink="http://www.w3.org/1999/xlink" x="0px" y="0px"
	 width="65.476px" height="57.664px" viewBox="0 0 65.476 57.664" enable-background="new 0 0 65.476 57.664" xml:space="preserve">
<g>
	<defs>
		<rect id="SVGID_1_" width="65.476" height="57.664"/>
	</defs>
	<clipPath id="SVGID_2_">
		<use xlink:href="#SVGID_1_"  overflow="visible"/>
	</clipPath>
	<path clip-path="url(#SVGID_2_)" fill="#e9e9f3" d="M31.938,42.792c-0.178,0-0.357-0.02-0.538-0.06
		c-4.029-0.885-7.707-2.9-10.636-5.827c-4.085-4.086-6.334-9.516-6.334-15.293c0-5.776,2.249-11.206,6.334-15.289
		c8.432-8.43,22.15-8.431,30.582,0c2.456,2.454,4.302,5.494,5.337,8.791c0.414,1.317-0.318,2.72-1.636,3.134
		c-1.319,0.416-2.721-0.318-3.134-1.636c-0.807-2.566-2.187-4.839-4.103-6.753c-6.48-6.48-17.027-6.48-23.512,0
		c-3.139,3.139-4.869,7.313-4.869,11.753c0,4.442,1.73,8.617,4.869,11.757c2.252,2.251,5.078,3.8,8.173,4.48
		c1.349,0.297,2.202,1.63,1.905,2.978C34.122,41.995,33.087,42.791,31.938,42.792"/>
	<path clip-path="url(#SVGID_2_)" fill="#e9e9f3" d="M7.769,57.664c-0.908,0-1.816-0.344-2.508-1.03l-4.22-4.225
		C0.372,51.741,0,50.849,0,49.899c0-0.949,0.37-1.842,1.04-2.513l16.872-16.872c0.976-0.977,2.558-0.977,3.535,0
		c0.976,0.976,0.976,2.559,0,3.535L5.6,49.897l2.17,2.173l15.849-15.85c0.976-0.977,2.558-0.977,3.535,0
		c0.976,0.976,0.976,2.559,0,3.535L10.283,56.628C9.588,57.318,8.678,57.664,7.769,57.664"/>
	<path clip-path="url(#SVGID_2_)" fill="#e9e9f3" d="M62.374,41.141H37.895c-1.709,0-3.099-1.391-3.099-3.1V19.067
		c0-1.709,1.39-3.099,3.099-3.099h9.351c0.668,0,1.293,0.334,1.663,0.89l1.881,2.818h12.687c1.104,0,2,0.896,2,2v16.365
		C65.476,39.75,64.084,41.141,62.374,41.141 M38.796,37.141h22.68V23.676H49.72c-0.668,0-1.293-0.334-1.663-0.889l-1.881-2.819
		h-7.38V37.141z"/>
</g>
</svg>
